<?xml version="1.0" encoding="UTF-8"?>
<svg id="fatman_interactive" xmlns="http://www.w3.org/2000/svg" xmlns:xlink="http://www.w3.org/1999/xlink" viewBox="0 0 790.98 900">
  <g id="background">
    <image width="1600" height="900" transform="translate(-379.94)" xlink:href="svg/fatman1.png"/>
  </g>
  <g id="symbols">
    <g id="peace">
      <path id="fred" d="M702.78,544.39l-41.9-41.9v-59.48c14.48,1.24,27.93,7.47,38.33,17.87,11.67,11.67,18.1,27.19,18.1,43.7,0,14.74-5.13,28.68-14.53,39.81h0ZM593.7,504.58c0-16.51,6.43-32.03,18.1-43.7,10.4-10.4,23.85-16.63,38.33-17.87v59.35l-41.96,41.96c-9.36-11.12-14.47-25.03-14.47-39.74h0ZM650.13,566.16c-12.7-1.09-24.61-6.02-34.36-14.23l34.36-34.36v48.6h0ZM660.88,517.69l34.29,34.29c-9.74,8.18-21.62,13.09-34.29,14.17v-48.46h0ZM655.5,432.03c-19.38,0-37.6,7.55-51.3,21.25-13.7,13.7-21.25,31.92-21.25,51.3s7.55,37.6,21.25,51.3c13.7,13.7,31.92,21.25,51.3,21.25s37.6-7.55,51.3-21.25c13.7-13.7,21.25-31.92,21.25-51.3s-7.55-37.6-21.25-51.3c-13.7-13.7-31.92-21.25-51.3-21.25h0Z" fill="#7ac943" stroke="#fff" stroke-miterlimit="10"/>
    </g>
    <g id="cake">
      <rect id="fill" x="355.14" y="471.58" width="131.03" height="75.68" transform="translate(-1.48 1.23) rotate(-.17)" fill="#f8ee85"/>
      <path id="bottom" d="M487.62,463.28l-14.51-30.67c-2.59-5.48-8.86-8.17-14.62-6.29l-17.84,5.84c2.18,3.1,3.69,6.72,4.07,10.75,1.17,12.37-7.93,23.38-20.3,24.55-12.36,1.17-23.37-7.93-24.54-20.3-.05-.56.02-1.1,0-1.66l-49.6,16.24c-5.47,1.79-8.97,7.14-8.43,12.87l6.5,68.6c.83,8.81,8.13,15.46,16.98,15.49l113.23.32c.55,0,1.1-.02,1.65-.07,4.24-.4,8.15-2.36,11.02-5.49,3.25-3.56,4.85-8.35,4.4-13.15l-6.92-73.02c-.13-1.39-.51-2.75-1.1-4.01ZM355.03,477.67c.52-.57,1.26-.9,2.04-.89l118.13.32c1.41,0,2.59,1.08,2.73,2.49l2.61,27.58c-.55.27-1.09.55-1.56.99-1.25,1.2-2.95,1.88-4.7,1.84-1.8-.05-3.47-.79-4.7-2.07l-.45-.45c-3.47-3.4-8.2-5.41-13.07-5.52-4.88-.13-9.47,1.56-13.1,4.71l-.72.65c-1.27,1.22-2.94,1.9-4.72,1.83-1.67-.04-3.23-.68-4.42-1.8l-.26-.27c-7.36-7.7-19.63-7.97-27.34-.62l-.26.25c-1.26,1.08-2.85,1.65-4.53,1.59-1.73-.03-3.41-.77-4.62-2.05-3.57-3.74-8.37-5.86-13.54-5.98-5.1-.11-10.12,1.84-13.81,5.36-1.29,1.23-2.99,1.87-4.74,1.85-1.77-.04-3.42-.77-4.65-2.05-.77-.81-1.73-1.25-2.74-1.53l-2.28-24.11c-.07-.78.18-1.54.71-2.11ZM482.45,545.42c-.87.96-2.06,1.55-3.35,1.67l-113.72-.29c-2.68,0-4.9-2.03-5.15-4.71l-2.26-23.87c6.39,2.25,13.77,1,19.02-4,1.4-1.35,3.34-2.1,5.29-2.05,1.98.05,3.83.86,5.19,2.29,3.39,3.56,8.14,5.65,12.97,5.73,4.96.14,9.67-1.68,13.28-5.11l.3-.29c2.88-2.48,7.21-2.38,9.97.26l.24.25c3.41,3.57,8.03,5.61,13.01,5.73,4.65.1,9.07-1.48,12.55-4.51l.71-.63c1.43-1.37,3.31-2.08,5.29-2.05,1.95.04,3.83.87,5.16,2.27l.48.48c3.36,3.29,7.79,5.16,12.55,5.29.72.01,1.43-.01,2.14-.08,1.96-.19,3.87-.71,5.66-1.48l2,21.09c.14,1.46-.35,2.91-1.33,3.99Z" fill="#f9c539" stroke="#fff" stroke-miterlimit="10"/>
      <path id="cherry" d="M395.52,399.8c18.05,8.05,22.07,29.36,22.07,29.38-7.43,2.21-12.53,9.43-11.77,17.43.86,9.1,8.96,15.79,18.05,14.93,9.1-.86,15.79-8.96,14.93-18.06-.78-8.29-7.59-14.51-15.67-14.92-.01-.15-.92-26.72-22.9-39.71-3.02-1.3-6.53.09-7.82,3.11-1.3,3.02.06,6.47,3.11,7.83Z" fill="#e63946" stroke="#000" stroke-miterlimit="10" stroke-width=".83"/>
    </g>
    <g id="love">
      <path id="heart" d="M113.3,495.53c-1.64-4.43-2.53-10.83-2.53-15.79,0-24.97,18.07-41.1,45.32-39.73,13.17.66,25.83,7.35,33.34,16.68,7.13-9.7,20.17-16.08,33.34-16.68,27.24-1.24,45.32,14.25,45.32,39.73,0,4.96-.89,11.36-2.53,15.79-11.65,31.53-44.8,57.67-76.13,73.72-30.7-15.62-64.48-42.19-76.13-73.72h0Z" fill="#e63946" stroke="#fff" stroke-miterlimit="10"/>
    </g>
  </g>
  <g id="points">
    <circle id="point1" cx="655.5" cy="566.16" r="16.5" fill="#7ac943" stroke="#fff" stroke-miterlimit="10"/>
    <circle id="point3" cx="420.06" cy="549.66" r="16.5" fill="#f8ee85" stroke="#fff" stroke-miterlimit="10"/>
    <circle id="point2" cx="189.43" cy="525.36" r="16.5" fill="#e63946" stroke="#fff" stroke-miterlimit="10"/>
  </g>
</svg>